<svg width="60" height="56" viewBox="0 0 60 56" fill="none" xmlns="http://www.w3.org/2000/svg">
<path d="M53.8499 23.1305C53.6992 22.8424 53.4007 22.6617 53.0754 22.662H6.92641C6.60129 22.662 6.30316 22.8425 6.15241 23.1305L0.37891 34.123C0.15416 34.5507 0.31866 35.0797 0.746535 35.3046C0.872035 35.3706 1.01166 35.405 1.15341 35.405H6.05341V54.705C6.05366 55.1881 6.44529 55.5797 6.92841 55.58H53.0749C53.5582 55.58 53.9499 55.1882 53.9499 54.705V35.405H58.8499C59.3332 35.405 59.7249 35.0131 59.7248 34.5299C59.7248 34.3881 59.6903 34.2485 59.6244 34.123L53.8499 23.1305ZM7.45541 24.412H28.5499L23.6999 33.655H2.59991L7.45541 24.412ZM7.79991 35.405H24.2249C24.5503 35.405 24.8488 35.2246 24.9999 34.9365L29.1239 27.0865V53.833H7.79991V35.405ZM52.1999 53.8315H30.8749V27.085L34.9999 34.9365C35.1508 35.2246 35.4492 35.4051 35.7744 35.405H52.1999V53.8315ZM36.2999 33.655L31.4499 24.412H52.5469L57.3999 33.655H36.2999Z" fill="#4295E4" stroke="#4295E4" stroke-width="0.5"/>
<path d="M30.0002 19.9315C35.3885 19.9315 39.7567 15.5634 39.7567 10.175C39.7567 4.78661 35.3885 0.418488 30.0002 0.418488C24.6118 0.418488 20.2437 4.78661 20.2437 10.175V10.1755C20.2498 15.5612 24.6144 19.9257 30.0002 19.9315ZM30.0002 2.16849C34.422 2.16849 38.0067 5.75311 38.0067 10.175C38.0067 14.5969 34.422 18.1815 30.0002 18.1815C25.5785 18.1815 21.9939 14.5971 21.9937 10.1755C21.9987 5.75561 25.5803 2.17374 30.0002 2.16849Z" fill="#4295E4" stroke="#4295E4" stroke-width="0.5"/>
<path d="M30.8897 12.6115H26.9502C26.4669 12.6115 26.0752 13.0032 26.0752 13.4865C26.0752 13.9697 26.4669 14.3615 26.9502 14.3615H30.8877C32.8799 14.338 34.4759 12.704 34.4524 10.7117C34.4293 8.75262 32.8468 7.17 30.8877 7.147H29.0627L29.6707 6.539C30.0187 6.20375 30.0291 5.64987 29.6938 5.30175C29.3586 4.95375 28.8047 4.94337 28.4566 5.27862C28.4493 5.28562 28.4422 5.29275 28.4351 5.3L26.3351 7.4C25.9933 7.74125 25.9929 8.295 26.3343 8.63675C26.3346 8.637 26.3348 8.63725 26.3351 8.6375L28.4351 10.7375C28.7768 11.0792 29.3308 11.0792 29.6726 10.7375C30.0143 10.3957 30.0143 9.84175 29.6726 9.5L29.0641 8.8915H30.8896C31.9153 8.90837 32.7332 9.7535 32.7163 10.7792C32.6999 11.7812 31.8916 12.5896 30.8896 12.606L30.8897 12.6115Z" fill="#4295E4" stroke="#4295E4" stroke-width="0.5"/>
</svg>
