<svg width="24" height="20" viewBox="0 0 24 20" fill="none" xmlns="http://www.w3.org/2000/svg">
<path d="M23.643 2.93683C22.808 3.30683 21.911 3.55683 20.968 3.66983C21.941 3.08763 22.669 2.1713 23.016 1.09183C22.1019 1.63482 21.1014 2.01703 20.058 2.22183C19.3564 1.4727 18.4271 0.976159 17.4143 0.809307C16.4016 0.642455 15.3621 0.814624 14.4573 1.29909C13.5524 1.78355 12.8328 2.55319 12.4102 3.48854C11.9875 4.42388 11.8855 5.47258 12.12 6.47183C10.2677 6.37883 8.45564 5.89738 6.80144 5.05874C5.14723 4.22009 3.68785 3.04299 2.51801 1.60383C2.11801 2.29383 1.88801 3.09383 1.88801 3.94583C1.88757 4.71283 2.07644 5.46808 2.43789 6.14457C2.79934 6.82105 3.32217 7.39787 3.96001 7.82383C3.22029 7.8003 2.49688 7.60042 1.85001 7.24083V7.30083C1.84994 8.37657 2.22204 9.41921 2.90319 10.2518C3.58435 11.0844 4.53258 11.6558 5.58701 11.8688C4.9008 12.0545 4.18135 12.0819 3.48301 11.9488C3.78051 12.8744 4.36001 13.6839 5.14038 14.2638C5.92075 14.8437 6.86293 15.165 7.83501 15.1828C6.18485 16.4782 4.1469 17.1809 2.04901 17.1778C1.67739 17.1779 1.30609 17.1562 0.937012 17.1128C3.06649 18.482 5.54535 19.2087 8.07701 19.2058C16.647 19.2058 21.332 12.1078 21.332 5.95183C21.332 5.75183 21.327 5.54983 21.318 5.34983C22.2293 4.69081 23.0159 3.87473 23.641 2.93983L23.643 2.93683Z" fill="white"/>
</svg>
